<svg xmlns="http://www.w3.org/2000/svg" xml:space="preserve" width="586" height="110" viewBox="-13 0 586 110"><path d="M476.217 84.913c0-5.769 3.951-9.963 9.391-9.963 5.434 0 9.385 4.194 9.385 9.963 0 5.839-3.858 9.919-9.385 9.919-5.524 0-9.391-4.08-9.391-9.919m.703-8.88c-2.25 2.273-3.487 5.427-3.487 8.88 0 7.272 5.008 12.353 12.175 12.353 4.525 0 7.915-2.479 9.249-4.861v12.257h2.701V72.918h-2.701V77.1c-1.778-2.746-5.465-4.58-9.249-4.58-3.37 0-6.452 1.246-8.688 3.513m-7.877-3.115h-2.693v23.943h2.693V72.918zm-36.926-8.727h-2.698v32.673h2.698V64.191zm-47.268 4.211h3.771c3.843 0 5.871 1.921 5.871 5.556 0 3.665-2.088 5.685-5.871 5.685h-3.771V68.402zm0 13.634h4.086c4.183 0 6.49 2.142 6.49 6.041 0 4.01-2.365 6.312-6.49 6.312h-4.086V82.036zm3.769-16.111h-6.51v30.939h6.909c5.64 0 9.281-3.45 9.281-8.787 0-3.681-1.688-6.419-4.637-7.534 2.354-1.257 3.7-3.682 3.7-6.675 0-2.621-.786-4.642-2.34-5.986-1.486-1.3-3.644-1.957-6.403-1.957m-93.133 23.564h-2.654v.058c0 4.821 2.731 7.586 7.494 7.586 2.121 0 4.028-.631 5.391-1.777 1.438-1.215 2.195-2.914 2.195-4.918 0-3.244-1.437-5.28-4.673-6.601-.771-.315-1.476-.522-2.165-.723-.771-.226-1.509-.442-2.282-.79-1.815-.84-2.597-1.96-2.597-3.734 0-2.271 1.585-3.683 4.131-3.683 2.684 0 4.164 1.629 4.312 4.708v.058h2.559v-.062c-.052-4.42-2.54-6.961-6.826-6.961-4.084 0-6.823 2.44-6.823 6.072 0 2.744 1.19 4.551 3.858 5.842.846.4 1.74.682 2.6.946.671.212 1.372.431 2.035.702 2.226.879 3.173 2.193 3.173 4.396 0 2.918-2.334 4.226-4.643 4.226-.039 0-.077-.005-.107-.005-3.197-.038-4.873-1.816-4.978-5.289v-.051zM272.23 72.918h-2.701v23.946h2.701V81.396c0-3.809 1.753-5.817 5.065-5.817h.9v-2.66h-.226c-3.513 0-5.085 1.504-5.742 2.526l.003-2.527zm-157.439-4.516h3.771c3.841 0 5.871 1.921 5.871 5.556 0 3.665-2.088 5.685-5.871 5.685h-3.771V68.402zm0 13.634h4.086c4.183 0 6.49 2.142 6.49 6.041 0 4.01-2.365 6.312-6.49 6.312h-4.086V82.036zm3.77-16.111h-6.51v30.939h6.909c5.64 0 9.281-3.45 9.281-8.787 0-3.681-1.688-6.419-4.637-7.534 2.354-1.257 3.7-3.682 3.7-6.675 0-2.621-.786-4.642-2.34-5.986-1.486-1.3-3.645-1.957-6.403-1.957M87.746 89.489h-2.649v.058c0 4.821 2.733 7.586 7.496 7.586 2.114 0 4.028-.631 5.389-1.777 1.438-1.215 2.197-2.914 2.197-4.918 0-3.244-1.437-5.28-4.666-6.601-.78-.315-1.489-.522-2.172-.723-.773-.226-1.509-.442-2.282-.79-1.815-.84-2.597-1.96-2.597-3.734 0-2.271 1.585-3.683 4.131-3.683 2.682 0 4.17 1.629 4.306 4.708l.007.058h2.561v-.062c-.052-4.42-2.54-6.961-6.826-6.961-4.086 0-6.825 2.44-6.825 6.072 0 2.744 1.188 4.551 3.86 5.842.845.4 1.74.682 2.598.946.671.212 1.373.431 2.037.702 2.226.879 3.171 2.193 3.171 4.396 0 2.918-2.333 4.226-4.641 4.226-.039 0-.071-.005-.109-.005-3.195-.038-4.873-1.816-4.976-5.289l-.01-.051zm-54.212-4.576c0-5.769 3.949-9.963 9.385-9.963 5.434 0 9.385 4.194 9.385 9.963 0 5.839-3.861 9.919-9.385 9.919-5.524 0-9.385-4.08-9.385-9.919m.696-8.88c-2.243 2.273-3.479 5.427-3.479 8.88 0 7.272 5.002 12.353 12.169 12.353 4.522 0 7.921-2.479 9.249-4.861v4.462h2.7V64.191h-2.7v12.906c-1.779-2.744-5.466-4.58-9.249-4.58-3.366.003-6.454 1.249-8.69 3.516M10.563 28.426H7.998v68.383h2.563l.002-68.383zm-8.334-8.424c0 .086-.09.129-.045.215.021.05.064.088.097.12.06.039.109.039.138.097-.155.067-.026.239-.021.368.213-.009.29.124.406.199.154.104.315.152.534.204.155.15.374.189.649.232.116.017.251.054.361.066.419.039.812 0 1.218.013.183.013.361.062.503.054.109-.009.266-.041.36-.054.046 0 .091.007.123 0 .084-.013.135-.075.219-.079.174-.018.374.017.567.013.181 0 .361-.021.548-.03 1.579-.068 3.068-.02 4.551-.038.188 0 .367-.007.556-.014.503-.006.991.148 1.502.032.097.08.069.148.146.188.09.045.167.021.251 0 .045-.013.123-.007.148-.018.084-.034.115-.116.2-.133a.722.722 0 0 1 .197 0c.148.013.259.073.389.013.02-.056.062-.056.097-.114.045-.083.007-.199.052-.251.06-.073.104 0 .183-.047.052-.245.251-.333.204-.637-.129-.083-.02-.264-.104-.38.084-.129.046-.265.052-.406 0-.056.032-.109.032-.161 0-.283-.104-.374-.167-.567-.021-.064-.014-.129-.032-.187-.084-.213-.304-.432-.438-.587-.099-.104-.144-.193-.267-.212-.181-.039-.275.142-.503.115-.083.091-.199.091-.296.148-.084.052-.129.148-.22.2a1.257 1.257 0 0 1-.349.167c-.104.03-.199.026-.314.035-.155.013-.316.075-.483.081-.23.013-.471.039-.688.02-.328-.025-.67-.097-1.012-.064a15.07 15.07 0 0 1-1.42.045c-2.05-.006-4.351-.006-6.387-.013-.252 0-.481-.043-.716.013-.084 0-.071.091-.122.116-.078-.013-.11-.071-.2-.082-.052-.002-.115.026-.181.035-.013.12-.097.208-.135.317-.061.161-.064.342-.123.516-.13.072-.163.33-.06.452m9.61-18.446c-.013-.047-.077-.043-.116-.047-.23-.057-.464-.23-.638-.387-.007-.062.023-.107 0-.134-.032-.045-.136-.021-.116-.133.077-.099.264-.061.374-.099 0-.048-.059-.026-.091-.035-.109-.038-.213-.088-.328-.133-.155-.058-.312-.129-.465-.168-.206-.142-.451-.341-.67-.416-.051-.015-.109.012-.206.017-.206.018-.322.078-.477.117a2.24 2.24 0 0 0-.419.136c-.174.082-.322.276-.516.199-.045-.097.11-.129.032-.148a.934.934 0 0 0-.347.148c-.122.086-.297.148-.367.264-.045.075-.052.206-.104.323-.025.057-.09.109-.116.165-.019.041-.032.118-.045.18-.07.234-.024.479-.09.718-.02.086-.097.154-.109.251-.02.064-.03.168-.039.265-.013.103-.02.288.021.417.023.103.097.163.146.253.039.071.052.161.084.212.071.136.183.265.271.387.103.154.187.315.264.399a.804.804 0 0 0 .22.168c.113.045.159-.02.242-.037.215-.038.531.038.705-.098.09.02.161-.045.245-.068.077-.013.161 0 .238-.013.142-.028.29-.104.432-.134.06-.011.122 0 .168-.017.083-.032.144-.116.238-.155.103-.032.199-.02.29-.06.045-.014.032-.075.07-.089.275-.147.51-.348.87-.412-.161-.129.03-.38.23-.303.039-.02-.058-.056-.032-.116.007-.056.077-.032.064-.099a.266.266 0 0 1-.219-.166c.058-.135.075-.393 0-.505.013-.029.068-.011.051-.062-.135-.02-.238-.204-.367-.284a.487.487 0 0 1 0-.234c.091-.075.258-.056.367-.017.042-.097.139-.044.255-.05m6.806 10.11c.091-.185.061-.374.052-.584 0-.148.021-.29 0-.419-.013-.071-.058-.136-.062-.2-.052-.249-.058-.496-.09-.767-.021-.193-.123-.354-.109-.548-.143-.29-.368-.49-.49-.786-.152-.143-.29-.336-.464-.433-.161-.092-.31-.187-.471-.271-.161-.088-.303-.219-.464-.296-.084-.046-.174-.075-.252-.136a.886.886 0 0 0-.35.013c-.342-.154-.845 0-1.235.021-.077.075-.222.088-.284.181-.219.036-.354.24-.496.333-.058.039-.109.039-.154.066-.069.05-.136.177-.245.15-.045-.009-.146-.159-.204-.229-.104-.142-.176-.297-.329-.335-.032-.181-.214-.213-.238-.4-.371-.126-.571-.419-.919-.566-.071-.136-.142-.265-.335-.284-.064-.161-.245-.221-.465-.234-.06-.088-.161-.081-.251-.133-.054-.032-.09-.077-.148-.104a1.37 1.37 0 0 0-.483-.115c-.122 0-.266.064-.419.068-.176.005-.376-.033-.588-.033-.191 0-.413.081-.58.068-.052-.005-.104-.034-.149-.034-.129 0-.2.111-.303.15-.064.02-.148.013-.213.032-.076.026-.137.08-.205.101-.111.036-.226.029-.304.068-.058.032-.115.096-.174.152-.024.017-.07.034-.103.064-.026.022-.038.08-.071.099-.039.032-.109.039-.148.071-.174.122-.206.362-.38.466-.032.095-.104.176-.155.249-.058.077-.109.163-.18.232-.245-.173-.49-.341-.703-.547-.213-.02-.45-.023-.632-.066-.109.066-.251.042-.399.066-.09.006-.167.025-.251.032-.123.006-.245-.032-.368-.032-.213 0-.435.142-.664.161-.09.013-.18-.007-.252 0-.206.038-.295.154-.418.238-.065.045-.167.033-.167.115-.06.016-.104.046-.168.066-.122.204-.406.335-.6.516-.103.1-.206.242-.313.367-.11.125-.228.232-.336.354-.091.104-.183.238-.297.38-.156.181-.408.353-.259.587a.588.588 0 0 0-.077.367 2.393 2.393 0 0 0-.238.78c0 .064.013.135 0 .199 0 .052-.026.086-.026.136-.045.444 0 .938.064 1.366.024.206.02.413.069.621.025.146.077.283.092.417.084.509.198 1.091.354 1.482.026.073.039.154.064.215.02.036.069.062.091.101.02.045.023.097.045.148.116.288.271.6.438.818.015.023.021.052.032.064.174.277.425.548.696.689 0 .046.038.073.062.097.154.129.367.181.566.269.104.041.2.093.304.116.129.028.258.009.399.03.058.018.107.043.167.05.297.066.658.025.954.019.052-.006.013-.094.052-.115.354.083.632-.365.593-.587-.013-.093-.135-.271-.264-.245-.062-.045-.005-.217-.153-.187-.103-.02 0 .167-.097.154-.07-.006-.077.02-.129 0-.038-.073-.006-.187.052-.251.129-.039.219-.02.329-.066.019-.263-.2-.31-.168-.533-.058-.045-.116-.09-.181-.122-.008-.075-.092-.078-.104-.148-.128-.034-.289-.034-.418-.064-.175-.123-.304-.297-.445-.451.015-.069-.013-.097-.02-.148-.122-.136-.188-.29-.264-.451-.039-.084-.099-.168-.104-.238-.013-.112.039-.236-.02-.361a.532.532 0 0 1-.131-.253c-.103-.392-.068-.95-.03-1.364.007-.11 0-.213.014-.304.013-.058.038-.111.051-.163.021-.124.021-.224.052-.333.086-.307.206-.634.232-.94.032-.007.116.032.104-.026.084-.142.129-.32.198-.475.144-.054.221-.183.33-.267.328.091.438-.15.573-.315.148.077.136-.054.2-.097.165.096.229.3.318.463.034.071.086.116.098.168.039.185-.052.47-.084.734-.015.12-.021.238-.032.367-.013.123-.058.238-.064.349-.013.115.021.242.015.348-.006.136-.038.238-.032.354.007.084.046.174.052.265.007.083-.013.167 0 .251.021.187.099.354.116.537.032.249.013.455.032.73.013.054.058.066.062.116.032.183.007.376.032.554.013.054.052.107.058.164 0 .051-.019.115-.019.167 0 .174.07.356.083.535.007.075-.006.142 0 .217.014.105.078.209.104.312.023.161 0 .335.045.49.02.064.091.097.084.181a.333.333 0 0 1 .251.315c.191.12.359.271.632.369.059.021.116.018.168.03.062.02.122.069.187.084.213.064.438.015.646.071.071.013.116.064.188.081a.463.463 0 0 0 .115.016c.252.002.329-.153.548-.168.039-.136.175-.222.222-.348.02-.067.006-.166.036-.252.016-.052.054-.095.064-.148.02-.165-.058-.319-.09-.5-.06-.428.071-.718.052-1.07.006-.047.084-.021.064-.099.03-.31.013-.689-.015-.967-.052-.612.015-1.293-.014-1.85-.006-.123-.006-.269-.038-.351-.02-.075-.142-.165-.168-.249-.006-.052.026-.122.02-.172-.013-.172-.104-.344-.097-.498-.058-.071-.142-.129-.187-.215-.009-.014 0-.057-.016-.082-.058-.116.007-.238.046-.387.032-.111.07-.219.104-.315.109-.338.22-.645.381-.9.18-.286.36-.589.548-.802.389.071.427-.199.672-.269.116.082.161.245.2.387.045.152.097.335.104.501 0 .066-.038.129-.038.199 0 .064.03.15.038.232 0 .073-.015.161 0 .215.013.088.084.165.104.249.025.206.021.432.025.639.007.122-.015.244-.021.362 0 .091.026.172.021.254 0 .041-.025.086-.025.131-.007.105.025.213.025.322 0 .191-.032.389-.045.6a90.496 90.496 0 0 0-.188 4.898c.025.064.129.056.154.12a.405.405 0 0 0 .058.249c.052.05.136.05.239.102.045.023.077.084.135.116.039.023.116.045.168.064.148.07.283.077.464.118.099.017.193.062.29.081.071.02.174.02.267.034.083.021.174.043.242.052.344.03.567-.15.725-.285.038-.032.115-.024.161-.052.023-.091 0-.188.019-.277.021-.071.091-.142.104-.202.02-.107 0-.242.013-.385.026-.226.039-.438.052-.65.007-.12.025-.232.015-.335-.008-.064-.032-.123-.025-.181 0-.059.025-.12.025-.168.013-.097-.015-.181-.015-.283.007-.471.183-.979.213-1.47.025-.303.021-.562.054-.799.051-.329.121-.6.167-.868.129-.306.265-.686.335-1.001.114-.091.23-.112.314-.25.09-.15.032-.387.09-.588.009-.032.045-.1.064-.143.013-.064.077-.072.116-.122.023-.041.013-.093.062-.116.168 0 .193-.167.283-.283.084-.102.213-.168.316-.23.236.138.229.476.281.812.032.243.084.494.104.72.052.802-.071 1.742-.052 2.464-.344.327-.625.705-.734 1.255-.175.228-.213.593-.349.851v.181c-.213.104-.116.442-.07.639.083.019.146-.041.199 0 .052.122.062.271.146.38.015.013.045.009.071.039.063.056.109.122.212.167.046.013.104 0 .155.013.135.039.251.136.313.15.061.014.148-.008.213 0 .144.014.271.095.389.102.136 0 .258-.077.387-.066.084.002.045.129.161.099.104-.026.116-.136.238-.168.104-.025.226.032.335-.032 0-.09 0-.181-.021-.251.06-.013.083-.071.129-.097.07-.387.188-.722.283-1.07.188-.206.271-.514.419-.747.144-.105.266-.243.399-.354.007-.1.013-.104 0-.2.059-.084.129-.154.188-.232.045-.154.032-.296.032-.451.006-.058.032-.115.038-.183 0-.146 0-.279.013-.397.016-.231-.019-.479 0-.702.013-.118.045-.228.006-.333M79.786 83.34H62.145c.535-5.175 3.867-8.39 8.707-8.39 5.279 0 8.701 3.215 8.934 8.39m-8.843-10.82c-3.294 0-6.276 1.232-8.396 3.483-2.12 2.245-3.287 5.41-3.287 8.91 0 3.61 1.16 6.705 3.352 8.946 2.181 2.229 5.188 3.404 8.688 3.404 5.04 0 9.021-2.689 10.925-7.388l.021-.052-2.059-.911-.052-.024-.025.053c-1.966 4.072-4.68 5.891-8.811 5.891-5.376 0-8.914-3.502-9.249-9.146h20.528l.006-.054c.039-.493.039-1.157.039-1.479-.175-7.065-4.764-11.633-11.68-11.633m81.41 10.82h-17.641c.535-5.175 3.867-8.39 8.708-8.39 5.279 0 8.702 3.215 8.933 8.39m2.836.814c-.174-7.066-4.756-11.637-11.679-11.637-3.293 0-6.277 1.232-8.392 3.483-2.127 2.245-3.294 5.41-3.294 8.91 0 3.61 1.158 6.705 3.352 8.944 2.186 2.229 5.188 3.406 8.688 3.406 5.049 0 9.023-2.689 10.927-7.388l.02-.052-2.056-.911-.052-.024-.026.051c-1.966 4.074-4.679 5.893-8.812 5.893-5.375 0-8.912-3.502-9.247-9.146h20.526v-.055c.045-.489.045-1.153.045-1.474m24.615.759c0 5.839-3.861 9.919-9.391 9.919-5.524 0-9.387-4.08-9.387-9.919 0-5.769 3.951-9.963 9.387-9.963 5.44 0 9.391 4.195 9.391 9.963m-9.39-12.393c-3.358 0-6.445 1.246-8.685 3.516-2.249 2.271-3.484 5.427-3.484 8.88 0 7.271 5.001 12.353 12.169 12.353 4.522 0 7.921-2.479 9.255-4.859v4.46h2.692V72.92h-2.692v4.18c-1.779-2.746-5.466-4.58-9.255-4.58m25.355 22.136c-3.268 0-5.064-2.196-5.064-6.18v-15.56h-2.7v15.825c0 2.463.619 4.521 1.779 5.938 1.334 1.625 3.345 2.449 5.985 2.449 4.718 0 7.76-3.293 7.76-8.39v-15.82h-2.691v15.561c-.003 3.981-1.801 6.177-5.069 6.177m29.101-21.738-7.405 9.453-7.348-9.432-.021-.021h-3.403l9.088 11.596-9.636 12.258-.069.095h3.223l8.121-10.296 8.103 10.272.021.021h3.223l-9.713-12.396 9.018-11.452.07-.098h-3.272zm4.164 12.457h8.134v-2.611h-8.134v2.611zm28.436-2.703h-10.519l5.175-13.189 5.344 13.189zm5.794 14.192h2.843l-12.549-30.9-.014-.039h-2.797l-12.04 30.86-.032.079h2.714l4.582-11.714h12.53l4.75 11.676.013.038zm27.405-23.946h-5.072v-3.604h-2.7v3.604h-2.585v2.393h2.585v15.975c0 3.556.902 5.76 5.401 5.76.767 0 1.714-.05 2.272-.09l.054-.003v-2.386h-2.062c-2.759 0-2.965-1.479-2.965-3.726v-15.53h5.072v-2.393zm39.768 2.032c5.44 0 9.385 4.194 9.385 9.963 0 5.839-3.858 9.919-9.385 9.919-5.523 0-9.384-4.08-9.384-9.919 0-5.768 3.951-9.963 9.384-9.963m0-2.43c-3.364 0-6.451 1.246-8.682 3.516-2.249 2.271-3.486 5.427-3.486 8.88 0 7.271 5.001 12.353 12.168 12.353 4.525 0 7.922-2.479 9.249-4.859v4.46h2.701V64.191h-2.701v12.906c-1.774-2.743-5.459-4.577-9.249-4.577m36.867 10.82h-17.643c.535-5.175 3.867-8.39 8.708-8.39 5.281 0 8.704 3.215 8.935 8.39m2.836.814c-.174-7.066-4.756-11.637-11.679-11.637-3.293 0-6.277 1.232-8.394 3.483-2.12 2.245-3.294 5.41-3.294 8.91 0 3.61 1.16 6.705 3.354 8.944 2.186 2.229 5.188 3.406 8.688 3.406 5.04 0 9.023-2.689 10.925-7.388l.021-.052-2.058-.911-.052-.024-.026.051c-1.966 4.074-4.679 5.893-8.811 5.893-5.375 0-8.914-3.502-9.249-9.146h20.528l.007-.055c.04-.489.04-1.153.04-1.474m34.631-.814c.535-5.175 3.867-8.39 8.708-8.39 5.285 0 8.701 3.215 8.933 8.39h-17.641zm.406-7.337c-2.127 2.245-3.294 5.41-3.294 8.91 0 3.61 1.16 6.705 3.352 8.946 2.188 2.229 5.188 3.404 8.688 3.404 5.047 0 9.021-2.689 10.925-7.388l.02-.052-2.056-.911-.052-.024-.026.053c-1.966 4.072-4.679 5.891-8.811 5.891-5.375 0-8.914-3.502-9.249-9.146H425.2v-.054c.045-.493.045-1.157.045-1.479-.174-7.064-4.756-11.635-11.679-11.635-3.29.002-6.276 1.234-8.389 3.485m52.877 8.91c0 5.839-3.854 9.919-9.378 9.919-5.529 0-9.386-4.08-9.386-9.919 0-5.769 3.944-9.963 9.386-9.963 5.434 0 9.378 4.195 9.378 9.963m-1.082 17.316c2.423-2.094 3.653-5.299 3.653-9.519V72.918h-2.7V77.1c-1.778-2.746-5.465-4.58-9.249-4.58-3.364 0-6.451 1.246-8.688 3.516-2.25 2.271-3.485 5.427-3.485 8.88 0 7.271 5.008 12.353 12.175 12.353 4.523 0 7.915-2.479 9.249-4.859v.972c0 5.822-3.476 9.16-9.521 9.16-3.912 0-6.716-1.445-8.385-2.659l-.046-.037-1.372 2.102-.026.047.039.031c.915.693 4.299 2.951 9.745 2.951 3.564-.006 6.535-.957 8.611-2.748m12.877-34.459c0-1.211-.947-2.152-2.152-2.152s-2.146.941-2.146 2.152c0 1.209.939 2.149 2.146 2.149s2.152-.94 2.152-2.149m48.869 20.973V72.918h-2.701v15.561c0 3.981-1.798 6.18-5.06 6.18-3.27 0-5.065-2.196-5.065-6.18V72.918h-2.701v15.825c0 2.463.612 4.521 1.779 5.94 1.327 1.625 3.345 2.447 5.987 2.447 4.712.003 7.761-3.29 7.761-8.387m24.827-5.403h-17.643c.534-5.175 3.867-8.39 8.707-8.39 5.282 0 8.698 3.215 8.936 8.39m2.791 2.293c.045-.494.045-1.158.045-1.479-.176-7.066-4.759-11.637-11.681-11.637-3.294 0-6.276 1.232-8.396 3.483-2.121 2.245-3.287 5.41-3.287 8.91 0 3.61 1.16 6.705 3.352 8.944 2.187 2.229 5.188 3.406 8.688 3.406 5.04 0 9.021-2.689 10.925-7.388l.019-.05-2.057-.911-.052-.024-.025.051c-1.966 4.074-4.686 5.893-8.811 5.893-5.376 0-8.914-3.502-9.249-9.146h20.521l.008-.052zM294.454 52.216l-.071.097h3.223l8.121-10.298 8.108 10.274.013.023h3.223l-9.713-12.398 9.017-11.451.071-.099h-3.268l-7.406 9.453-7.348-9.43-.021-.023h-3.396l9.082 11.597-9.635 12.255zM37.891 21.373h-3.842v30.939h2.61V25.545l11.646 26.731.021.036h2.836L62.73 25.544v26.768h2.746V21.373H61.77L49.834 49.298l-11.93-27.887-.013-.038zm41.173 28.729c-3.268 0-5.064-2.195-5.064-6.179V28.364h-2.7v15.827c0 2.462.612 4.519 1.778 5.94 1.326 1.624 3.339 2.449 5.986 2.449 4.711 0 7.762-3.296 7.762-8.39V28.364h-2.7v15.559c-.002 3.983-1.801 6.179-5.062 6.179m19.239-22.004c-4.08 0-6.826 2.442-6.826 6.071 0 2.746 1.192 4.551 3.861 5.844.851.401 1.74.679 2.598.945.677.211 1.372.43 2.043.705 2.217.878 3.164 2.193 3.164 4.397 0 2.915-2.326 4.222-4.641 4.222-.032 0-.07-.004-.109-.004-3.196-.039-4.866-1.818-4.976-5.288v-.054h-2.655v.057c0 4.82 2.732 7.588 7.496 7.588 2.12 0 4.034-.632 5.388-1.779 1.438-1.216 2.198-2.913 2.198-4.92 0-3.244-1.438-5.28-4.667-6.6-.779-.313-1.482-.52-2.165-.722-.78-.224-1.509-.44-2.288-.789-1.815-.84-2.591-1.959-2.591-3.735 0-2.271 1.579-3.683 4.125-3.683 2.681 0 4.17 1.631 4.312 4.709v.056h2.565v-.06c-.058-4.421-2.546-6.96-6.832-6.96m24.376-7.838-3.532 5.908-.052.091h2.714l3.584-5.908.051-.091h-2.765zm6.652 18.528H111.69c.535-5.178 3.867-8.39 8.708-8.39 5.285 0 8.701 3.212 8.933 8.39m2.797 2.29c.045-.494.045-1.155.045-1.476-.174-7.066-4.764-11.639-11.688-11.639-3.294 0-6.275 1.235-8.392 3.485-2.121 2.247-3.287 5.409-3.287 8.911 0 3.612 1.153 6.706 3.345 8.946 2.188 2.23 5.188 3.405 8.688 3.405 5.047 0 9.021-2.691 10.925-7.386l.021-.052-2.059-.913-.051-.026-.02.052c-1.975 4.073-4.688 5.892-8.817 5.892-5.375 0-8.907-3.502-9.249-9.145h20.528l.011-.054zm23.622-2.29h-17.644c.535-5.178 3.867-8.39 8.708-8.39 5.281 0 8.704 3.212 8.936 8.39m2.797 2.29c.039-.494.039-1.155.039-1.476-.175-7.066-4.757-11.639-11.682-11.639-3.293 0-6.275 1.235-8.392 3.485-2.12 2.247-3.293 5.409-3.293 8.911 0 3.612 1.16 6.706 3.353 8.946 2.186 2.23 5.188 3.405 8.688 3.405 5.041 0 9.023-2.691 10.925-7.386l.021-.052-2.058-.913-.052-.026-.023.052c-1.968 4.073-4.682 5.892-8.812 5.892-5.375 0-8.913-3.502-9.249-9.145h20.528l.007-.054zm5.885-7.042c0-2.271 1.579-3.683 4.125-3.683 2.681 0 4.17 1.631 4.312 4.709v.056h2.563l-.007-.06c-.051-4.422-2.539-6.961-6.825-6.961-4.08 0-6.825 2.442-6.825 6.071 0 2.746 1.192 4.551 3.86 5.844.851.401 1.74.679 2.598.945.679.211 1.373.43 2.043.705 2.219.878 3.165 2.193 3.165 4.397 0 2.915-2.325 4.222-4.641 4.222-.032 0-.071-.004-.11-.004-3.194-.039-4.864-1.818-4.976-5.288v-.054h-2.655v.057c0 4.82 2.732 7.588 7.496 7.588 2.12 0 4.028-.632 5.388-1.779 1.438-1.216 2.198-2.913 2.198-4.92 0-3.244-1.438-5.28-4.666-6.6-.78-.313-1.48-.521-2.166-.722-.78-.224-1.508-.44-2.288-.789-1.815-.838-2.589-1.958-2.589-3.734m31.169-3.013h.902v-2.659h-.228c-3.513 0-5.085 1.506-5.74 2.526v-2.526h-2.701v23.948h2.701V36.844c.001-3.81 1.754-5.821 5.066-5.821m23.726 9.337c0 5.75-3.983 9.918-9.477 9.918-5.55 0-9.43-4.078-9.43-9.918 0-5.771 3.971-9.962 9.43-9.962 5.493 0 9.477 4.192 9.477 9.962m2.791 0c0-3.488-1.259-6.66-3.547-8.931-2.241-2.236-5.322-3.466-8.676-3.466-3.352 0-6.433 1.212-8.682 3.414-2.309 2.263-3.577 5.453-3.577 8.982 0 3.609 1.218 6.712 3.521 8.977 2.21 2.177 5.276 3.375 8.647 3.375 7.022.001 12.314-5.308 12.314-12.351m12.013 9.742c-3.28 0-5.015-2.136-5.015-6.179V28.364h-2.7v15.827c0 5.33 2.714 8.39 7.451 8.39 3.446 0 5.014-1.762 5.601-2.698v2.681c0 3.417-1.979 5.374-5.421 5.374-2.812 0-4.737-1.062-5.771-1.636l-.226-.122-1.057 2.377-.021.045.052.025c.773.443 3.151 1.792 7.021 1.792 5.009 0 8.121-3.049 8.121-7.941V28.364h-2.7v15.337c.002 4.01-1.989 6.401-5.335 6.401m33.98-9.742c0 5.84-3.858 9.918-9.384 9.918-5.522 0-9.385-4.078-9.385-9.918 0-5.771 3.944-9.962 9.385-9.962 5.434 0 9.384 4.192 9.384 9.962m-.135 11.952h2.7V28.364h-2.7v4.181c-1.779-2.746-5.466-4.581-9.249-4.581-3.364 0-6.452 1.249-8.688 3.518-2.249 2.271-3.487 5.427-3.487 8.879 0 7.272 5.009 12.352 12.176 12.352 4.524 0 7.921-2.477 9.249-4.859l-.001 4.458zm21.16-23.948v15.559c0 3.983-1.799 6.179-5.06 6.179-3.271 0-5.066-2.195-5.066-6.179V28.364h-2.7v15.827c0 2.462.618 4.519 1.778 5.94 1.334 1.624 3.346 2.449 5.988 2.449 4.718 0 7.76-3.296 7.76-8.39V28.364h-2.7z"/></svg>